Coordinates
version=1
nRows=19
nColumns=36
inDegrees=yes

Units are S.I. units (second, meters, Newtons, ...)
If the header above contains a line with 'inDegrees', this indicates whether rotational values are in degrees (yes) or radians (no).

endheader
time	pelvis_tilt	pelvis_list	pelvis_rotation	pelvis_tx	pelvis_ty	pelvis_tz	hip_flexion_r	hip_adduction_r	hip_rotation_r	knee_angle_r	knee_angle_r_beta	ankle_angle_r	subtalar_angle_r	mtp_angle_r	hip_flexion_l	hip_adduction_l	hip_rotation_l	knee_angle_l	knee_angle_l_beta	ankle_angle_l	subtalar_angle_l	mtp_angle_l	lumbar_extension	lumbar_bending	lumbar_rotation	arm_flex_r	arm_add_r	arm_rot_r	elbow_flex_r	pro_sup_r	arm_flex_l	arm_add_l	arm_rot_l	elbow_flex_l	pro_sup_l
      4.50000000	     -0.66450175	      1.79696595	      2.73038948	      1.09910714	      0.85272217	      0.08631598	     31.11016257	     -1.88241027	     -0.98558209	     60.06392723	      1.04831329	     31.99689290	    -11.24869208	     -7.49999987	     30.71416315	     -8.34377099	     -1.63817958	     60.73257286	      1.05998336	     29.48427950	      1.48798547	     -7.49999987	    -31.38834152	      0.26041432	     -0.71039256	     17.50163501	    -10.00896086	     24.68495601	     22.91739733	     63.25383322	     31.93090350	    -14.88044121	     40.80471245	     28.03510383	     68.67199752
      4.51666670	      0.37619582	      1.85066310	      3.09632687	      1.10128205	      0.86199405	      0.08407670	     28.02546233	     -1.83495194	     -1.10193961	     56.70571351	      0.98970141	     30.63189939	    -11.85777682	     -7.49999987	     28.23443084	     -8.40849245	     -2.36590729	     58.06421757	      1.01341177	     28.04249226	      2.75576877	     -7.49999987	    -31.07028460	      0.09877294	      0.10296506	     15.40753286	     -9.69247817	     14.90892089	     26.26336495	     77.56946704	     30.97326350	    -13.71780105	     41.97398084	     27.57546786	     71.18777556
      4.53333330	      1.58995062	      1.75005367	      3.34116458	      1.10936076	      0.87640073	      0.08943047	     24.26820440	     -1.39364552	     -1.29173169	     52.74726419	      0.92061343	     29.01856624	    -12.35562911	     -7.49999987	     25.00683125	     -8.81951491	     -3.03667555	     54.90150448	      0.95821202	     26.51566210	      3.95526604	     -7.49999987	    -30.25290106	      0.19629194	     -0.45969117	     14.80324801	     -9.13137108	     14.82499079	     26.97148145	     77.69253984	     28.82879672	    -13.45936347	     42.19021893	     26.95819879	     71.08483579
      4.55000000	      2.52237586	      1.58585609	      3.62023744	      1.11046231	      0.88546676	      0.09238251	     21.11079548	     -0.80813575	     -1.48755930	     49.14863395	      0.85780549	     27.31677438	    -13.14004627	     -7.49999987	     22.13132676	     -9.23372564	     -3.55776627	     51.60046268	      0.90059797	     25.43937795	      5.10916991	     -7.49999987	    -29.30614260	      0.10017549	     -0.31472511	     13.62776808	     -8.73154998	     13.63282061	     28.32579429	     78.55097178	     27.08618884	    -13.13383622	     42.37265074	     26.87148759	     70.57994180
      4.56666670	      3.68502100	      1.39259714	      4.04484176	      1.11629040	      0.90221280	      0.09057556	     17.42580412	     -0.30426024	     -1.69963613	     44.86694121	      0.78307585	     24.86916223	    -13.96964588	     -7.49999987	     18.83669673	     -9.33956825	     -3.75669546	     48.01232234	      0.83797311	     23.61386120	      5.55785949	     -7.49999987	    -28.39099066	      0.38275172	     -0.91369808	     12.90483710	     -8.25306796	     13.46453279	     28.59199434	     78.84891139	     25.04563381	    -12.83792996	     42.80898852	     26.01405199	     70.48785671
      4.58333330	      4.58588410	      1.20278725	      4.21160419	      1.12149557	      0.91427091	      0.08783448	     14.05214800	      0.10967115	     -1.56990423	     40.31563756	      0.70364062	     22.17358525	    -14.89384918	     -7.49999987	     15.57079265	     -9.23326615	     -3.99817807	     43.85682180	      0.76544594	     21.98405374	      6.06655050	     -7.49999987	    -27.32743599	      0.63976825	     -1.04412531	     11.97160434	     -8.12579354	     13.35456236	     28.81056379	     79.24878479	     23.03373710	    -12.33926845	     43.11047208	     25.38523925	     70.30262394
      4.60000000	      5.38628565	      1.25556408	      4.36715033	      1.12907371	      0.91790981	      0.08427212	     10.91914907	      0.20928441	     -1.22618602	     36.38753401	      0.63508228	     20.18774642	    -15.48749464	     -7.49999987	     12.39527576	     -8.81502271	     -4.11315486	     39.78705121	      0.69441504	     20.64527250	      6.32314434	     -7.49999987	    -25.92267018	      0.69377482	     -1.26006628	     10.77766941	     -8.13141422	     13.16202516	     28.91543013	     79.71607895	     20.91105681	    -11.72301538	     43.02668114	     24.75412029	     69.88177510
      4.61666670	      6.07009584	      1.47077215	      4.68738266	      1.13754449	      0.93010401	      0.08053662	      7.42542934	      0.04055053	     -1.07418843	     31.87951146	      0.55640244	     18.27353956	    -15.63451772	     -7.49999987	      9.10890024	     -8.05665719	     -4.07661012	     35.54341125	      0.62034955	     19.22130033	      6.55321411	     -7.49999987	    -24.28970538	      0.76204984	     -1.77683278	      9.48538739	     -8.18912800	     13.00493769	     28.84983395	     80.16144356	     18.62967485	    -11.13775997	     43.15522903	     23.86166466	     69.60417031
      4.63333330	      6.47345284	      1.69266495	      4.98481476	      1.14198416	      0.93010069	      0.07754125	      4.75153013	     -0.13909020	     -0.86928600	     28.36085683	      0.49499033	     16.96264341	    -16.13224269	     -7.49999987	      6.35566472	     -7.29475350	     -3.83335359	     31.77957541	      0.55465823	     18.26420624	      6.38257133	     -7.49999987	    -22.55920613	      0.81882678	     -1.99468199	      8.22092563	     -8.43524263	     12.76077265	     28.80734166	     80.61321503	     16.66522480	    -10.44830819	     43.02199950	     23.14569083	     69.27270645
      4.65000000	      6.60351695	      1.91461044	      5.23535011	      1.14694049	      0.93289551	      0.07294004	      2.55423880	     -0.38138381	     -0.80536242	     25.21358001	      0.44005999	     15.55605804	    -16.76545124	     -7.49999987	      4.03453174	     -6.41889896	     -3.35702212	     28.14897142	      0.49129223	     17.47802053	      6.42001226	     -7.49999987	    -20.78533031	      0.93961239	     -2.10461864	      6.75253269	     -8.60400374	     10.32055699	     29.07104707	     84.87426718	     14.75824519	     -9.63627802	     41.94781774	     22.80463047	     67.91179612
      4.66666670	      6.67977495	      2.25757183	      5.25130998	      1.15225384	      0.94172334	      0.07083119	      0.39202234	     -0.79633821	     -0.74983991	     21.95529825	      0.38319224	     14.43509944	    -16.70085612	     -7.49999987	      1.65526727	     -5.39676980	     -2.70468389	     24.21039170	      0.42255105	     16.25198577	      5.95248641	     -7.49999987	    -19.03135167	      0.83410439	     -2.16593215	      5.65718840	     -8.94904632	     10.11519031	     28.89412445	     84.93730856	     13.10225656	     -8.96798627	     41.82087050	     22.14448267	     67.90982432
      4.68333330	      6.93413285	      2.51195734	      5.25515045	      1.15105508	      0.95178420	      0.07207967	     -1.90146370	     -0.97953019	     -0.69263966	     18.30698620	      0.31951719	     12.83828836	    -16.40903984	     -7.49999987	     -0.79506752	     -4.61056994	     -1.70115876	     20.12030376	      0.35116555	     14.49779969	      4.91873685	     -7.49999987	    -17.96538810	      0.72405107	     -2.07671066	      4.87912286	     -9.10139015	      9.13211706	     28.88246933	     85.73570209	     11.85998086	     -8.43504240	     40.51671227	     21.83440277	     68.72133686
      4.70000000	      7.28732549	      2.84901573	      5.19912140	      1.15629776	      0.96155327	      0.07252814	     -4.42187797	     -1.26642969	     -1.08228763	     14.50005902	      0.25307377	     11.24667509	    -15.40471549	     -7.49999987	     -3.32268163	     -3.86414411	     -0.60409412	     16.01206215	      0.27946320	     12.17222834	      3.94638497	     -7.49999987	    -17.15174848	      0.44243812	     -1.98685389	      4.29703707	     -9.15805349	      8.99012174	     28.52402018	     85.86304667	     10.90532745	     -8.11312812	     40.20255463	     21.29490420	     68.83688035
      4.71666670	      7.94716461	      3.04674479	      5.09272113	      1.15978809	      0.96182570	      0.07384255	     -6.96250989	     -1.31600947	     -1.82735643	     11.19370157	      0.19536695	     10.18230721	    -13.94296078	     -7.49999987	     -5.99804680	     -3.47765447	      0.49376314	     12.40648076	      0.21653394	     10.32418214	      2.89349645	     -7.49999987	    -16.90866926	      0.21398887	     -1.84365058	      3.88244268	     -9.14657771	      8.83281208	     28.29251933	     86.04106470	      9.95275289	     -8.00927723	     38.52453491	     21.30395172	     69.88740017
      4.73333330	      8.62743893	      3.22237791	      4.96134750	      1.16102362	      0.95764487	      0.07314234	     -9.15492846	     -1.33229610	     -2.39438886	      8.53048211	      0.14888500	      9.19194106	    -13.16655793	     -7.49999987	     -8.40292058	     -3.21970163	      1.28566325	      9.46977016	      0.16527867	      9.27811617	      2.41213379	     -7.49999987	    -16.88160404	     -0.02522547	     -1.50856005	      3.60504032	     -9.16542134	      8.54496151	     28.07000041	     86.19069563	      9.46787012	     -7.94852181	     38.02668428	     21.12266800	     70.11880674
      4.75000000	      9.47217871	      3.33369853	      4.95467190	      1.16212737	      0.95441275	      0.07177292	    -11.27354641	     -1.26888656	     -2.87022570	      6.44429069	      0.11247409	      8.80478586	    -12.21352399	     -7.49999987	    -10.70294054	     -3.08125492	      1.97325896	      7.12265987	      0.12431387	      8.70647036	      1.78648173	     -7.49999987	    -17.18679434	     -0.13776849	     -1.26959810	      3.47658613	     -9.22820396	      8.09892381	     28.07966900	     86.33746351	      9.18214403	     -7.92689786	     37.30561084	     21.10882568	     70.40041575
      4.76666670	      9.65057098	      3.33918071	      4.85763389	      1.15947998	      0.94987612	      0.07160006	    -12.22874590	     -1.21696171	     -3.02654518	      5.04364479	      0.08802821	      8.74542753	    -11.88680158	     -7.49999987	    -11.85841416	     -3.00150514	      2.34943001	      5.53110310	      0.09653596	      8.93141696	      1.69001411	     -7.49999987	    -16.76230957	     -0.16396995	     -0.97901099	      3.43580184	     -9.36861007	      7.94977902	     28.01794013	     86.37508241	      8.89966411	     -7.93319856	     37.05721094	     21.09587557	     70.46776530
      4.78333330	     11.23273421	      3.40757136	      4.66858940	      1.15770055	      0.94480320	      0.07259526	    -14.65745926	     -1.11134452	     -3.27294871	      3.64200657	      0.06356501	      9.04642366	    -11.15955362	     -7.49999987	    -14.48787955	     -3.00447415	      2.90439504	      3.88186297	      0.06775129	      8.83795199	      1.07004908	     -7.49999987	    -18.50322579	     -0.17251500	     -0.62744400	      4.00662791	     -9.51882566	      7.45353834	     28.00231840	     86.48555755	      9.36113643	     -7.93408573	     36.04825042	     21.26269453	     70.67977120
      4.80000000	     12.05794988	      3.40695921	      4.51709476	      1.15629346	      0.94419309	      0.07324607	    -16.00781896	     -1.01249076	     -3.53917595	      2.70536255	      0.04721748	      9.50006717	    -10.53062586	     -7.49999987	    -15.96732334	     -3.07079922	      3.46422023	      2.80736920	      0.04899784	      8.98453774	      0.59646593	     -7.49999987	    -19.48848795	     -0.12938624	     -0.81426943	      4.56827289	     -9.35188705	      5.84304123	     28.24876636	     89.41726590	      8.70407120	     -7.85073148	     29.15743063	     22.71590429	     77.66317476
